<svg width="48" height="48" viewBox="0 0 48 48" fill="none" xmlns="http://www.w3.org/2000/svg">
<path d="M38 12H10.036C8.93144 12 8.03601 12.8954 8.03601 14C8.03601 15.1046 8.93144 16 10.036 16H38C39.1046 16 40 15.1046 40 14C40 12.8954 39.1046 12 38 12Z" fill="#333333"/>
<path d="M38 22H10.036C8.93144 22 8.03601 22.8954 8.03601 24C8.03601 25.1046 8.93144 26 10.036 26H38C39.1046 26 40 25.1046 40 24C40 22.8954 39.1046 22 38 22Z" fill="#333333"/>
<path d="M38 32H10.036C8.93144 32 8.03601 32.8954 8.03601 34C8.03601 35.1046 8.93144 36 10.036 36H38C39.1046 36 40 35.1046 40 34C40 32.8954 39.1046 32 38 32Z" fill="#333333"/>
</svg>
